# Blender v2.78 (sub 0) OBJ File: 'kitchen_tools.blend'
# www.blender.org
mtllib kitchen_tools.mtl
o part0_texture0.003
v -0.496094 0.371094 -0.125000
v 0.507812 0.390625 -0.175781
v -0.496094 0.371094 -0.175781
v 0.507812 0.390625 -0.125000
v 0.539062 0.210938 -0.175781
v 0.539062 0.210938 -0.125000
v -0.562500 0.058594 -0.125000
v -0.562500 0.058594 -0.175781
v 0.539062 0.347656 -0.050781
v -0.503906 0.324219 -0.125000
v 0.539062 0.347656 -0.125000
v -0.503906 0.324219 -0.050781
v -0.527344 0.394531 -0.050781
v 0.488281 0.453125 -0.125000
v -0.527344 0.394531 -0.125000
v 0.488281 0.453125 -0.050781
v 0.539062 -0.101562 -0.125000
v -0.527344 0.003906 -0.125000
v 0.488281 -0.015625 -0.125000
v -0.503906 -0.144531 -0.125000
v 0.507812 -0.058594 -0.175781
v -0.523438 -0.273437 -0.175781
v -0.496094 -0.078125 -0.175781
v 0.558594 -0.316406 -0.175781
v 0.539062 -0.101562 -0.050781
v -0.503906 -0.144531 -0.050781
v -0.527344 0.003906 -0.050781
v 0.488281 -0.015625 -0.050781
v 0.558594 -0.316406 -0.125000
v -0.523438 -0.273437 -0.125000
v -0.496094 -0.078125 -0.125000
v 0.507812 -0.058594 -0.125000
vt 0.2578 -0.0898
vt 0.9453 -0.3555
vt 0.9453 -0.0898
vt 0.2578 -0.3555
vt 0.2578 -0.0898
vt 0.9453 -0.3555
vt 0.9453 -0.0898
vt 0.2578 -0.3555
vt 0.2578 -0.0898
vt 0.9453 -0.3555
vt 0.9453 -0.0898
vt 0.2578 -0.0898
vt 0.9453 -0.3555
vt 0.9453 -0.0898
vt 0.2578 -0.3555
vt 0.9453 -0.0742
vt 0.1953 -0.3242
vt 0.9453 -0.3242
vt 0.1953 -0.0742
vt 0.9453 -0.0742
vt 0.1953 -0.3242
vt 0.9453 -0.3242
vt 0.1953 -0.0742
vt 0.9453 -0.0742
vt 0.1953 -0.3242
vt 0.9453 -0.3242
vt 0.1953 -0.0742
vt 0.1953 -0.3242
vt 0.9453 -0.3242
vt 0.9453 -0.0742
vt 0.1953 -0.3242
vt 0.9453 -0.3242
vt 0.1953 -0.0742
vt 0.9453 -0.3555
vt 0.9453 -0.0898
vt 0.2578 -0.3555
vt 0.0000 -1.0000
vt 0.0000 -1.0000
vt 0.0000 -1.0000
vt 0.0000 -1.0000
vt 0.0000 -1.0000
vt 0.0000 -1.0000
vt 0.0000 -1.0000
vt 0.0000 -1.0000
vt 0.0000 -1.0000
vt 0.0000 -1.0000
vt 0.0000 -1.0000
vt 0.0000 -1.0000
vt 0.0000 -1.0000
vt 0.0000 -1.0000
vt 0.0000 -1.0000
vt 0.0000 -1.0000
vt 0.9766 -0.0898
vt 0.2266 -0.3086
vt 0.9766 -0.3086
vt 0.2266 -0.0898
vt 0.9766 -0.0898
vt 0.2266 -0.3086
vt 0.9766 -0.3086
vt 0.2266 -0.0898
vt 0.9766 -0.0898
vt 0.2266 -0.3086
vt 0.9766 -0.3086
vt 0.2266 -0.0898
vt 0.2266 -0.3086
vt 0.9766 -0.3086
vt 0.9766 -0.0898
vt 0.2266 -0.3086
vt 0.9766 -0.3086
vt 0.2266 -0.0898
vt 0.9453 -0.0898
vt 0.2266 -0.3398
vt 0.9453 -0.3398
vt 0.2266 -0.0898
vt 0.9453 -0.0898
vt 0.2266 -0.3398
vt 0.9453 -0.3398
vt 0.2266 -0.0898
vt 0.9453 -0.0898
vt 0.2266 -0.3398
vt 0.9453 -0.3398
vt 0.2266 -0.0898
vt 0.2266 -0.3398
vt 0.9453 -0.3398
vt 0.9453 -0.0898
vt 0.2266 -0.3398
vt 0.9453 -0.3398
vt 0.2266 -0.0898
vn -0.0214 0.9998 -0.0000
vn -0.0213 0.9998 0.0000
vn 0.9849 0.1733 0.0000
vn 0.0000 -0.0000 1.0000
vn -0.9790 0.2037 -0.0000
vn -0.9790 0.2038 -0.0000
vn 0.0225 -0.9997 -0.0000
vn -0.0576 0.9983 0.0000
vn 0.8965 0.4431 0.0000
vn 0.8964 0.4432 0.0000
vn -0.9367 -0.3503 -0.0000
vn 0.1370 -0.9906 -0.0000
vn 0.0000 0.0000 -1.0000
vn 0.0412 -0.9992 -0.0000
vn 0.0192 0.9998 0.0000
vn 0.4981 0.8671 0.0000
vn 0.8540 0.5203 0.0000
vn -0.9851 -0.1720 -0.0000
vn -0.0397 -0.9992 0.0000
vn 0.9809 0.1946 0.0000
vn 0.9809 0.1947 -0.0000
vn -0.9914 0.1311 -0.0000
usemtl Material.025
s 1
f 1/1/1 2/2/1 3/3/2
f 2/2/1 1/1/1 4/4/2
f 5/5/3 4/6/3 6/7/3
f 4/6/3 5/5/3 2/8/3
f 6/9/4 1/10/4 7/11/4
f 1/10/4 6/9/4 4/4/4
f 7/12/5 3/13/6 8/14/5
f 3/13/6 7/12/5 1/15/5
f 9/16/7 10/17/7 11/18/7
f 10/17/7 9/16/7 12/19/7
f 13/20/8 14/21/8 15/22/8
f 14/21/8 13/20/8 16/23/8
f 11/24/9 16/25/9 9/26/9
f 16/25/9 11/24/9 14/27/10
f 9/16/4 13/28/4 12/29/4
f 13/28/4 9/16/4 16/23/4
f 12/30/11 15/31/11 10/32/11
f 15/31/11 12/30/11 13/33/11
f 6/9/12 8/34/12 5/35/12
f 8/34/12 6/9/12 7/36/12
f 11/37/13 15/38/13 14/39/13
f 15/38/13 11/37/13 10/40/13
f 17/41/13 18/42/13 19/43/13
f 18/42/13 17/41/13 20/44/13
f 21/45/13 22/46/13 23/47/13
f 22/46/13 21/45/13 24/48/13
f 2/49/13 8/50/13 3/51/13
f 8/50/13 2/49/13 5/52/13
f 25/53/14 20/54/14 17/55/14
f 20/54/14 25/53/14 26/56/14
f 27/57/15 19/58/16 18/59/15
f 19/58/16 27/57/15 28/60/16
f 17/61/17 28/62/16 25/63/17
f 28/62/16 17/61/17 19/64/16
f 25/53/4 27/65/4 26/66/4
f 27/65/4 25/53/4 28/60/4
f 26/67/18 18/68/18 20/69/18
f 18/68/18 26/67/18 27/70/18
f 29/71/19 22/72/19 24/73/19
f 22/72/19 29/71/19 30/74/19
f 31/75/1 21/76/1 23/77/2
f 21/76/1 31/75/1 32/78/2
f 24/79/20 32/80/21 29/81/20
f 32/80/21 24/79/20 21/82/20
f 29/71/4 31/83/4 30/84/4
f 31/83/4 29/71/4 32/78/4
f 30/85/22 23/86/22 22/87/22
f 23/86/22 30/85/22 31/88/22
o part1_texture1.004
v 0.152344 -0.093750 -0.027344
v -0.035156 0.402344 -0.027344
v -0.003906 -0.101562 -0.027344
v 0.117188 0.414062 -0.027344
v 0.519531 -0.085937 -0.027344
v 0.304688 0.398438 -0.027344
v 0.367188 -0.105469 -0.027344
v 0.457031 0.417969 -0.027344
v 0.320312 -0.558594 -0.007813
v 0.152344 -0.019531 -0.007813
v 0.164062 -0.562500 -0.007813
v 0.304688 -0.015625 -0.007813
v 0.566406 -0.535156 -0.007813
v 0.343750 -0.027344 -0.007813
v 0.414062 -0.554688 -0.007813
v 0.496094 -0.007812 -0.007813
v -0.363281 -0.089844 -0.042969
v -0.488281 0.445312 -0.042969
v -0.554688 -0.078125 -0.042969
v -0.335938 0.437500 -0.042969
v -0.019531 -0.089844 -0.042969
v -0.156250 0.445312 -0.042969
v -0.214844 -0.078125 -0.042969
v -0.003906 0.437500 -0.042969
v -0.148438 -0.558594 -0.023438
v -0.300781 -0.023437 -0.023438
v -0.339844 -0.550781 -0.023438
v -0.148438 -0.031250 -0.023438
v -0.351562 -0.562500 -0.023438
v -0.453125 -0.015625 -0.023438
v -0.542969 -0.535156 -0.023438
v -0.300781 -0.039062 -0.023438
vt 0.8535 -0.8867
vt 0.7207 0.0000
vt 0.7207 -0.8867
vt 0.8535 0.0000
vt 0.9707 -0.8867
vt 0.8770 0.0000
vt 0.8770 -0.8867
vt 0.9707 0.0000
vt 0.7129 -1.0000
vt 0.5801 0.0000
vt 0.5801 -1.0000
vt 0.7129 0.0000
vt 0.5801 -0.9961
vt 0.4629 0.0000
vt 0.4629 -1.0000
vt 0.5801 0.0000
vt 0.3301 -1.0000
vt 0.2285 0.0000
vt 0.2285 -1.0000
vt 0.3301 0.0000
vt 0.4629 -0.9023
vt 0.3379 0.0000
vt 0.3379 -0.9023
vt 0.4629 0.0000
vt 0.2207 -0.9336
vt 0.1035 -0.0898
vt 0.1035 -0.9336
vt 0.2207 -0.0898
vt 0.1035 -0.9492
vt 0.0000 -0.0898
vt 0.0000 -0.9492
vt 0.1035 -0.0898
vn -0.0000 -0.0000 1.0000
usemtl Material.024
s 1
f 33/89/23 34/90/23 35/91/23
f 34/90/23 33/89/23 36/92/23
f 37/93/23 38/94/23 39/95/23
f 38/94/23 37/93/23 40/96/23
f 41/97/23 42/98/23 43/99/23
f 42/98/23 41/97/23 44/100/23
f 45/101/23 46/102/23 47/103/23
f 46/102/23 45/101/23 48/104/23
f 49/105/23 50/106/23 51/107/23
f 50/106/23 49/105/23 52/108/23
f 53/109/23 54/110/23 55/111/23
f 54/110/23 53/109/23 56/112/23
f 57/113/23 58/114/23 59/115/23
f 58/114/23 57/113/23 60/116/23
f 61/117/23 62/118/23 63/119/23
f 62/118/23 61/117/23 64/120/23
