# Blender v2.78 (sub 0) OBJ File: 'pantry_shelves.blend'
# www.blender.org
mtllib pantry_shelves.mtl
o part1_texture0.001
v -0.199219 -0.132813 0.109375
v -0.281250 -0.160156 -0.203125
v -0.199219 -0.132812 -0.203125
v -0.281250 -0.160156 0.109375
v -0.191406 -0.039063 0.132812
v -0.191406 -0.039062 -0.203125
v -0.289062 -0.062500 0.132812
v -0.289062 -0.062500 -0.203125
vt 0.7891 -0.3242
vt 0.3516 -0.1211
vt 0.3516 -0.3242
vt 0.7891 -0.1211
vt 0.7891 -0.3242
vt 0.3516 -0.1211
vt 0.3516 -0.3242
vt 0.7891 -0.1211
vt 0.3516 -0.1211
vt 0.3516 -0.3242
vt 0.7891 -0.1211
vt 0.7891 -0.3242
vt 0.3516 -0.1211
vt 0.3516 -0.3242
vt 0.7891 -0.1211
vn 0.2828 -0.9592 -0.0000
vn 0.9971 -0.0758 -0.0000
vn 0.0660 -0.2438 0.9676
vn 0.0659 -0.2438 0.9676
vn -0.9971 -0.0758 -0.0000
usemtl Material.064
s 1
f 1/1/1 2/2/1 3/3/1
f 2/2/1 1/1/1 4/4/1
f 3/5/2 5/6/2 1/7/2
f 5/6/2 3/5/2 6/8/2
f 1/1/3 7/9/3 4/10/3
f 7/9/3 1/1/3 5/11/4
f 4/12/5 8/13/5 2/14/5
f 8/13/5 4/12/5 7/15/5
o part0_texture0.013
v 0.191406 -0.054688 0.179687
v 0.386719 -0.082031 -0.203125
v 0.386719 -0.082031 0.164062
v 0.191406 -0.054687 -0.203125
v 0.000000 -0.046875 0.191406
v 0.000000 -0.046875 -0.203125
v -0.191406 -0.054688 0.179687
v -0.191406 -0.054687 -0.203125
v -0.386719 -0.082031 0.164062
v -0.386719 -0.082031 -0.203125
v -0.433594 -0.007813 0.187500
v -0.242188 0.035156 0.207031
v 0.000000 0.046875 0.218750
v 0.218750 0.035156 0.207031
v 0.433594 -0.007813 0.187500
v -0.433594 -0.007812 -0.203125
v -0.242188 0.035156 -0.203125
v 0.000000 0.046875 -0.203125
v 0.218750 0.035156 -0.203125
v 0.433594 -0.007812 -0.203125
v 0.332031 -0.160156 0.109375
v 0.242188 -0.039063 0.132812
v 0.250000 -0.132813 0.109375
v 0.335938 -0.062500 0.132812
v 0.242188 -0.039062 -0.203125
v 0.250000 -0.132812 -0.203125
v 0.332031 -0.160156 -0.203125
v 0.335938 -0.062500 -0.203125
vt 0.7667 -0.3590
vt 0.9353 -0.0810
vt 0.9353 -0.3590
vt 0.7667 -0.0810
vt 0.5927 -0.3590
vt 0.5927 -0.0810
vt 0.3968 -0.3590
vt 0.3968 -0.0810
vt 0.2391 -0.3590
vt 0.2391 -0.0810
vt 0.4074 -0.2496
vt 0.1752 -0.2088
vt 0.2216 -0.2708
vt 0.3610 -0.1701
vt 0.5932 -0.2427
vt 0.5932 -0.1600
vt 0.7790 -0.2496
vt 0.8022 -0.1701
vt 0.9648 -0.2708
vt 1.0112 -0.2088
vt 0.3968 -0.0810
vt 0.2391 -0.3590
vt 0.2391 -0.0810
vt 0.3968 -0.3590
vt 0.5927 -0.0810
vt 0.5927 -0.3590
vt 0.7667 -0.0810
vt 0.7667 -0.3590
vt 0.9353 -0.0810
vt 0.9353 -0.3590
vt 0.2266 -0.3555
vt 0.9453 -0.0742
vt 0.9453 -0.3555
vt 0.2266 -0.0742
vt 0.2266 -0.3555
vt 0.9453 -0.0742
vt 0.9453 -0.3555
vt 0.2266 -0.0742
vt 0.7891 -0.3242
vt 0.3516 -0.1055
vt 0.3516 -0.3242
vt 0.7891 -0.1055
vt 0.7891 -0.3242
vt 0.3516 -0.1055
vt 0.3516 -0.3242
vt 0.7891 -0.1055
vt 0.7891 -0.3242
vt 0.3516 -0.1055
vt 0.7891 -0.1055
vt 0.7891 -0.3242
vt 0.3516 -0.1055
vt 0.3516 -0.3242
vt 0.7891 -0.1055
vn -0.2119 -0.9773 0.0000
vn -0.3117 -0.9502 -0.0000
vn -0.2120 -0.9773 -0.0000
vn 0.0000 -1.0000 -0.0000
vn 0.2119 -0.9773 0.0000
vn 0.3118 -0.9502 0.0000
vn -0.0833 -0.2848 0.9550
vn -0.0792 -0.3062 0.9487
vn 0.0029 -0.2624 0.9649
vn 0.0029 -0.2624 0.9650
vn 0.0850 -0.2806 0.9560
vn 0.0769 -0.3018 0.9503
vn -0.3346 0.9424 -0.0000
vn -0.5144 0.8576 -0.0000
vn 0.0069 1.0000 -0.0000
vn 0.3145 0.9493 -0.0000
vn 0.3145 0.9493 0.0001
vn 0.4705 0.8824 -0.0000
vn 0.9679 -0.2514 -0.0000
vn -0.9679 -0.2514 0.0000
vn -0.0660 -0.2438 0.9676
vn -0.9971 -0.0758 -0.0000
vn -0.2828 -0.9592 -0.0000
vn 0.9971 -0.0758 0.0000
usemtl Material.064
s 1
f 9/16/6 10/17/7 11/18/7
f 10/17/7 9/16/6 12/19/8
f 13/20/9 12/19/8 9/16/6
f 12/19/8 13/20/9 14/21/9
f 15/22/10 14/21/9 13/20/9
f 14/21/9 15/22/10 16/23/10
f 17/24/11 16/23/10 15/22/10
f 16/23/10 17/24/11 18/25/11
f 15/26/12 19/27/13 17/28/13
f 19/27/13 15/26/12 20/29/12
f 13/30/14 20/29/12 15/26/12
f 20/29/12 13/30/14 21/31/15
f 9/32/16 21/31/15 13/30/14
f 21/31/15 9/32/16 22/33/16
f 11/34/17 22/33/16 9/32/16
f 22/33/16 11/34/17 23/35/17
f 20/36/18 24/37/19 19/38/19
f 24/37/19 20/36/18 25/39/18
f 21/40/20 25/39/18 20/36/18
f 25/39/18 21/40/20 26/41/20
f 22/42/21 26/41/20 21/40/20
f 26/41/20 22/42/21 27/43/22
f 23/44/23 27/43/22 22/42/21
f 27/43/22 23/44/23 28/45/23
f 10/46/24 23/47/24 11/48/24
f 23/47/24 10/46/24 28/49/24
f 17/50/25 24/51/25 18/52/25
f 24/51/25 17/50/25 19/53/25
f 29/54/26 30/55/26 31/56/26
f 30/55/26 29/54/26 32/57/26
f 31/58/27 33/59/27 34/60/27
f 33/59/27 31/58/27 30/61/27
f 34/62/28 29/63/28 31/56/28
f 29/63/28 34/62/28 35/64/28
f 35/65/29 32/66/29 29/67/29
f 32/66/29 35/65/29 36/68/29
o part3_texture1.001
v -0.320312 0.195312 0.113281
v -0.019531 0.253906 -0.140625
v -0.359375 0.195313 -0.140625
v -0.054688 0.253906 0.113281
v -0.328125 0.003906 -0.140625
v -0.019531 0.003906 -0.140625
v -0.054688 0.003906 0.113281
v -0.292969 0.003906 0.113281
vt 0.4883 -0.4961
vt 0.4570 -0.8867
vt 0.4883 -0.8867
vt 0.4570 -0.4961
vt 1.0000 -0.8086
vt 0.0000 0.0000
vt 0.0000 -0.8086
vt 1.0000 0.0000
vt 0.4883 -1.0000
vt 0.4570 -0.5117
vt 0.4570 -1.0000
vt 0.4883 -0.5117
vt 0.4414 -1.0000
vt 0.0664 -0.5117
vt 0.0664 -1.0000
vt 0.4414 -0.5117
vt 0.0508 -1.0000
vt 0.0000 -0.5117
vt 0.0000 -1.0000
vt 0.0508 -0.5117
vn -0.1829 0.9831 0.0022
vn -0.1830 0.9831 0.0022
vn 0.0000 0.0000 -1.0000
vn 0.9910 -0.0015 0.1337
vn 0.0000 -0.0000 1.0000
vn -0.9788 -0.1452 0.1443
usemtl Material.065
s 1
f 37/69/30 38/70/31 39/71/30
f 38/70/31 37/69/30 40/72/31
f 41/73/32 38/74/32 42/75/32
f 38/74/32 41/73/32 39/76/32
f 42/77/33 40/78/33 43/79/33
f 40/78/33 42/77/33 38/80/33
f 43/81/34 37/82/34 44/83/34
f 37/82/34 43/81/34 40/84/34
f 44/85/35 39/86/35 41/87/35
f 39/86/35 44/85/35 37/88/35
o part2_texture1.001
v 0.148438 0.304687 0.101563
v 0.417969 0.222656 -0.121094
v 0.113281 0.312500 -0.121094
v 0.386719 0.226562 0.101563
v 0.062500 0.007813 -0.121094
v 0.335938 -0.039062 -0.121094
v 0.304688 -0.035156 0.101562
v 0.093750 -0.000000 0.101562
vt 1.0000 0.0000
vt 0.5039 -0.1211
vt 1.0000 -0.1211
vt 0.5039 0.0000
vt 0.0060 -1.0000
vt 1.0000 -0.1177
vt 0.8840 -1.0000
vt 0.0000 0.0000
vt 1.0000 -0.4961
vt 0.5039 -0.4961
vt 1.0000 0.0000
vt 1.0000 -0.4961
vt 0.5039 0.0000
vt 0.5039 -0.4961
vt 1.0000 0.0000
vt 1.0000 -0.4961
vt 0.5039 0.0000
vt 0.5039 -0.4961
vn 0.2963 0.9551 -0.0016
vn 0.2964 0.9551 -0.0016
vn 0.0000 0.0000 -1.0000
vn 0.9457 -0.2967 0.1326
vn 0.9457 -0.2967 0.1325
vn 0.0000 -0.0000 1.0000
vn -0.9741 0.1728 0.1458
vn -0.9741 0.1729 0.1458
usemtl Material.065
s 1
f 45/89/36 46/90/36 47/91/36
f 46/90/36 45/89/36 48/92/37
f 49/93/38 46/94/38 50/95/38
f 46/94/38 49/93/38 47/96/38
f 50/97/39 48/92/39 51/98/39
f 48/92/40 50/97/40 46/99/40
f 51/100/41 45/101/41 52/102/41
f 45/101/41 51/100/41 48/103/41
f 52/104/42 47/105/42 49/106/43
f 47/105/43 52/104/43 45/89/43
