# Wavefront OBJ file
# Exported by Maverick Model 3D 1.3.12
# Tue Feb 02 15:55:09 2021

mtllib refridgerator.mtl

# 44 Vertices
v 0.387193 0.0 0.0
v -0.534723 1.144247 0.0
v -0.464727 0.0 0.0
v 0.284747 1.133733 0.680296
v 0.296737 1.160807 0.589378
v -0.355631 1.097118 0.680419
v 0.462971 1.17187 0.589413
v 0.363616 0.026511 0.613649
v 0.387193 0.0 0.534255
v 0.244481 0.0 0.533983
v -0.322528 0.0 0.533983
v -0.441018 0.025368 0.613652
v -0.464727 0.0 0.534255
v -0.53381 1.113649 0.589583
v 0.347053 0.587421 0.645289
v 0.383122 1.036449 0.669319
v 0.375356 1.028407 0.721484
v 0.315661 1.025277 0.721496
v 0.322424 1.719653 0.61483
v -0.38944 1.659941 0.615007
v -0.376415 1.629999 0.71195
v -0.533251 1.601574 0.704275
v -0.505613 1.134249 0.678506
v 0.462579 1.203513 0.0
v 0.499266 1.716925 0.613991
v 0.431531 1.132934 0.673205
v 0.236819 0.026321 0.619613
v -0.314221 0.025539 0.619615
v -0.390667 1.705417 0.0
v 0.321742 1.766222 0.0
v -0.567619 1.673123 0.0
v 0.498725 1.763287 0.0
v -0.502418 1.079945 0.673384
v -0.367677 1.122038 0.589492
v 0.286679 1.177324 0.684737
v 0.435115 1.190138 0.678317
v 0.466311 1.683355 0.703995
v -0.56627 1.628381 0.614254
v -0.357267 1.139182 0.684868
v 0.309505 1.686621 0.711755
v 0.308359 1.032505 0.669333
v 0.297925 0.585912 0.645293
v 0.303131 0.589721 0.696144
v 0.342413 0.590936 0.69614

# 234 Texture Coordinates
vt 1.0102 0.9631
vt 1.0127 0.3455
vt 1.6091 0.9631
vt 1.5084 0.359
vt 1.1364 0.3722
vt 1.5002 0.3743
vt 1.5928 0.9631
vt 1.6091 0.9631
vt 1.6234 0.3527
vt 1.5109 0.9631
vt 1.6091 0.9631
vt 1.5928 0.9631
vt 1.0266 0.9631
vt 1.0102 0.9631
vt 1.1084 0.9631
vt 1.0133 0.3628
vt 1.0102 0.9631
vt 1.0266 0.9631
vt 1.985 0.9861
vt 1.9805 0.9783
vt 1.7241 0.981
vt 1.9787 0.9191
vt 1.9805 0.9783
vt 1.985 0.9861
vt 1.1334 0.0297
vt 1.1424 0.0467
vt 1.5262 0.029
vt 1.034 0.0628
vt 1.1424 0.0467
vt 1.1334 0.0297
vt 1.034 0.0628
vt 1.0328 0.3511
vt 1.1424 0.0467
vt 0.995 0.8907
vt 0.7294 0.3366
vt 0.7294 0.8907
vt 0.995 0.3323
vt 0.7294 0.3366
vt 0.995 0.8907
vt 0.995 0.3323
vt 0.7294 0.1212
vt 0.7294 0.3366
vt 0.7429 0.4244
vt 0.7846 0.8391
vt 0.7429 0.8393
vt 0.9929 0.4244
vt 0.7846 0.8391
vt 0.7429 0.4244
vt 0.9929 0.4244
vt 0.951 0.8391
vt 0.7846 0.8391
vt 0.9929 0.8393
vt 0.951 0.8391
vt 0.9929 0.4244
vt 1.6016 0.3747
vt 1.5928 0.9631
vt 1.6234 0.3527
vt 1.5051 0.9631
vt 1.5928 0.9631
vt 1.6016 0.3747
vt 1.5051 0.9631
vt 1.5109 0.9631
vt 1.5928 0.9631
vt 1.1143 0.9631
vt 1.5109 0.9631
vt 1.5051 0.9631
vt 1.5257 0.0026
vt 1.0102 0.0223
vt 1.1326 0.004
vt 1.6481 0.0043
vt 1.0102 0.0223
vt 1.5257 0.0026
vt 1.6481 0.0043
vt 1.0127 0.3455
vt 1.0102 0.0223
vt 1.6231 0.3348
vt 1.0127 0.3455
vt 1.6481 0.0043
vt 1.6231 0.3348
vt 1.6091 0.9631
vt 1.0127 0.3455
vt 1.1364 0.3722
vt 1.1281 0.358
vt 1.035 0.3819
vt 1.5084 0.359
vt 1.1281 0.358
vt 1.1364 0.3722
vt 1.5084 0.359
vt 1.5015 0.3496
vt 1.1281 0.358
vt 1.6041 0.3424
vt 1.5015 0.3496
vt 1.5084 0.359
vt 1.6041 0.3424
vt 1.6257 0.0495
vt 1.5015 0.3496
vt 0.995 0.1183
vt 0.7294 0.1209
vt 0.995 0.0345
vt 0.995 0.3659
vt 0.7294 0.1209
vt 0.995 0.1183
vt 0.995 0.3659
vt 0.7294 0.3695
vt 0.7294 0.1209
vt 0.995 0.8907
vt 0.7294 0.3695
vt 0.995 0.3659
vt 0.995 0.8907
vt 0.7294 0.8907
vt 0.7294 0.3695
vt 0.995 0.1177
vt 0.7294 0.1212
vt 0.995 0.3323
vt 0.995 0.0
vt 0.7294 0.1212
vt 0.995 0.1177
vt 0.995 0.0
vt 0.7294 0.0036
vt 0.7294 0.1212
vt 0.995 0.0345
vt 0.7294 0.0036
vt 0.995 0.0
vt 0.995 0.0345
vt 0.7294 0.0374
vt 0.7294 0.0036
vt 0.7294 0.1209
vt 0.7294 0.0374
vt 0.995 0.0345
vt 1.0112 0.0476
vt 1.034 0.0628
vt 1.1334 0.0297
vt 1.0133 0.3628
vt 1.034 0.0628
vt 1.0112 0.0476
vt 1.0133 0.3628
vt 1.0328 0.3511
vt 1.034 0.0628
vt 1.1353 0.3483
vt 1.0328 0.3511
vt 1.0133 0.3628
vt 1.1353 0.3483
vt 1.1424 0.0467
vt 1.0328 0.3511
vt 1.5173 0.0477
vt 1.1424 0.0467
vt 1.1353 0.3483
vt 1.5173 0.0477
vt 1.5262 0.029
vt 1.1424 0.0467
vt 1.6484 0.0305
vt 1.5262 0.029
vt 1.5173 0.0477
vt 1.9828 0.9118
vt 1.9787 0.9191
vt 1.985 0.9861
vt 1.7232 0.9323
vt 1.9787 0.9191
vt 1.9828 0.9118
vt 1.7232 0.9323
vt 1.7254 0.9374
vt 1.9787 0.9191
vt 1.7241 0.981
vt 1.7254 0.9374
vt 1.7232 0.9323
vt 1.7241 0.981
vt 1.7261 0.9764
vt 1.7254 0.9374
vt 1.9805 0.9783
vt 1.7261 0.9764
vt 1.7241 0.981
vt 1.9805 0.9783
vt 1.7254 0.9374
vt 1.7261 0.9764
vt 1.9787 0.9191
vt 1.7254 0.9374
vt 1.9805 0.9783
vt 1.1143 0.9631
vt 1.1364 0.3722
vt 1.035 0.3819
vt 1.5051 0.9631
vt 1.1364 0.3722
vt 1.1143 0.9631
vt 1.5051 0.9631
vt 1.5002 0.3743
vt 1.1364 0.3722
vt 1.6016 0.3747
vt 1.5002 0.3743
vt 1.5051 0.9631
vt 1.6016 0.3747
vt 1.5084 0.359
vt 1.5002 0.3743
vt 1.6234 0.3527
vt 1.5084 0.359
vt 1.6016 0.3747
vt 1.6234 0.3527
vt 1.6041 0.3424
vt 1.5084 0.359
vt 1.6484 0.0305
vt 1.6041 0.3424
vt 1.6234 0.3527
vt 1.6484 0.0305
vt 1.6257 0.0495
vt 1.6041 0.3424
vt 1.5173 0.0477
vt 1.6257 0.0495
vt 1.6484 0.0305
vt 1.5173 0.0477
vt 1.5015 0.3496
vt 1.6257 0.0495
vt 1.1353 0.3483
vt 1.5015 0.3496
vt 1.5173 0.0477
vt 1.1353 0.3483
vt 1.1281 0.358
vt 1.5015 0.3496
vt 1.0133 0.3628
vt 1.1281 0.358
vt 1.1353 0.3483
vt 1.0133 0.3628
vt 1.035 0.3819
vt 1.1281 0.358
vt 1.0266 0.9631
vt 1.035 0.3819
vt 1.0133 0.3628
vt 1.0266 0.9631
vt 1.1143 0.9631
vt 1.035 0.3819
vt 1.1084 0.9631
vt 1.1143 0.9631
vt 1.0266 0.9631
vt 1.1084 0.9631
vt 1.5109 0.9631
vt 1.1143 0.9631

# 234 Vertex Normals
vn 0.0 0.0 -1.0
vn 0.0 0.0 -1.0
vn 0.0 0.0 -1.0
vn -0.03823 0.949867 0.310308
vn -0.058259 0.576497 0.815019
vn 0.004956 0.575955 0.817466
vn 0.53652 -0.57947 0.613482
vn 0.665933 -0.714838 0.2134
vn 0.956079 -0.226063 0.186572
vn 0.002705 -0.97967 0.2006
vn 0.665933 -0.714838 0.2134
vn 0.53652 -0.57947 0.613482
vn -0.536637 -0.582467 0.610534
vn -0.666636 -0.715382 0.209344
vn -0.001958 -0.98902 0.14777
vn -0.935499 -0.210759 0.283587
vn -0.666636 -0.715382 0.209344
vn -0.536637 -0.582467 0.610534
vn 0.987251 -0.086455 0.133648
vn 0.662431 -0.094435 0.743147
vn 0.681322 -0.721314 0.124521
vn -0.643197 0.603461 0.47131
vn -0.020167 0.37707 0.925965
vn -0.051941 0.988152 0.144423
vn -0.139097 0.965081 0.221969
vn -0.087519 0.558998 0.824537
vn -0.049404 0.979387 0.195857
vn -0.628119 0.455668 0.63074
vn -0.087519 0.558998 0.824537
vn -0.139097 0.965081 0.221969
vn -0.628119 0.455668 0.63074
vn -0.338502 -0.392877 0.855023
vn -0.087519 0.558998 0.824537
vn 0.538029 -0.842926 -0.001084
vn 0.956079 -0.226063 0.186572
vn 0.665933 -0.714838 0.2134
vn 0.997913 -0.064402 -0.004662
vn 0.956079 -0.226063 0.186572
vn 0.538029 -0.842926 -0.001084
vn 0.997913 -0.064402 -0.004662
vn 0.984953 -0.071989 0.157116
vn 0.956079 -0.226063 0.186572
vn -0.685023 -0.728521 -0.000557
vn -0.001958 -0.98902 0.14777
vn -0.666636 -0.715382 0.209344
vn 0.538029 -0.842926 -0.001084
vn -0.001958 -0.98902 0.14777
vn -0.685023 -0.728521 -0.000557
vn 0.538029 -0.842926 -0.001084
vn 0.002705 -0.97967 0.2006
vn -0.001958 -0.98902 0.14777
vn 0.665933 -0.714838 0.2134
vn 0.002705 -0.97967 0.2006
vn 0.538029 -0.842926 -0.001084
vn 0.363497 0.264089 0.89338
vn 0.53652 -0.57947 0.613482
vn 0.956079 -0.226063 0.186572
vn 0.022737 -0.422529 0.906064
vn 0.53652 -0.57947 0.613482
vn 0.27834 0.469483 0.837921
vn 0.022737 -0.422529 0.906064
vn 0.002705 -0.97967 0.2006
vn 0.53652 -0.57947 0.613482
vn -0.020044 -0.619394 0.784825
vn 0.002705 -0.97967 0.2006
vn 0.022737 -0.422529 0.906064
vn 0.0 0.0 -1.0
vn 0.0 0.0 -1.0
vn 0.0 0.0 -1.0
vn 0.0 0.0 -1.0
vn 0.0 0.0 -1.0
vn 0.0 0.0 -1.0
vn 0.0 0.0 -1.0
vn 0.0 0.0 -1.0
vn 0.0 0.0 -1.0
vn 0.0 0.0 -1.0
vn 0.0 0.0 -1.0
vn 0.0 0.0 -1.0
vn 0.0 0.0 -1.0
vn 0.0 0.0 -1.0
vn 0.0 0.0 -1.0
vn -0.058259 0.576497 0.815019
vn -0.075851 0.946822 0.31269
vn -0.331135 0.46349 0.821905
vn -0.03823 0.949867 0.310308
vn -0.075851 0.946822 0.31269
vn -0.058259 0.576497 0.815019
vn 0.071492 -0.978781 0.192033
vn 0.065326 -0.660639 0.747856
vn 0.055149 -0.983427 0.172714
vn 0.577654 -0.595365 0.558441
vn 0.065326 -0.660639 0.747856
vn 0.071492 -0.978781 0.192033
vn 0.577654 -0.595365 0.558441
vn 0.36221 0.250341 0.897849
vn 0.065326 -0.660639 0.747856
vn -0.787338 0.614765 0.046508
vn -0.776698 0.603641 0.179883
vn -0.130832 0.988674 0.073534
vn -0.998075 -0.061998 -0.00189
vn -0.776698 0.603641 0.179883
vn -0.787338 0.614765 0.046508
vn -0.998075 -0.061998 -0.00189
vn -0.955614 -0.206224 0.210413
vn -0.776698 0.603641 0.179883
vn -0.685023 -0.728521 -0.000557
vn -0.955614 -0.206224 0.210413
vn -0.998075 -0.061998 -0.00189
vn -0.685023 -0.728521 -0.000557
vn -0.666636 -0.715382 0.209344
vn -0.955614 -0.206224 0.210413
vn 0.997905 -0.064437 -0.005745
vn 0.984953 -0.071989 0.157116
vn 0.997913 -0.064402 -0.004662
vn -0.017529 0.996995 0.075458
vn 0.021627 0.977221 0.211119
vn 0.016534 0.997026 0.07527
vn -0.017529 0.996995 0.075458
vn -0.049404 0.979387 0.195857
vn 0.021627 0.977221 0.211119
vn -0.130832 0.988674 0.073534
vn -0.049404 0.979387 0.195857
vn -0.017529 0.996995 0.075458
vn -0.130832 0.988674 0.073534
vn -0.139097 0.965081 0.221969
vn -0.049404 0.979387 0.195857
vn -0.776698 0.603641 0.179883
vn -0.139097 0.965081 0.221969
vn -0.130832 0.988674 0.073534
vn -0.776698 0.603641 0.179883
vn -0.628119 0.455668 0.63074
vn -0.139097 0.965081 0.221969
vn -0.935499 -0.210759 0.283587
vn -0.628119 0.455668 0.63074
vn -0.776698 0.603641 0.179883
vn -0.935499 -0.210759 0.283587
vn -0.338502 -0.392877 0.855023
vn -0.628119 0.455668 0.63074
vn 0.020835 -0.658001 0.752729
vn -0.338502 -0.392877 0.855023
vn -0.915217 -0.333332 0.226424
vn 0.020835 -0.658001 0.752729
vn -0.087519 0.558998 0.824537
vn -0.338502 -0.392877 0.855023
vn 0.00661 0.554641 0.832063
vn -0.087519 0.558998 0.824537
vn 0.020835 -0.658001 0.752729
vn 0.00661 0.554641 0.832063
vn -0.049404 0.979387 0.195857
vn -0.087519 0.558998 0.824537
vn 0.443474 0.833775 0.328862
vn -0.049404 0.979387 0.195857
vn 0.00661 0.554641 0.832063
vn -0.706645 0.680671 0.193237
vn -0.643197 0.603461 0.47131
vn -0.051941 0.988152 0.144423
vn -0.992534 0.019174 0.120456
vn -0.643197 0.603461 0.47131
vn -0.706645 0.680671 0.193237
vn -0.992534 0.019174 0.120456
vn -0.426462 -0.040248 0.90361
vn -0.643197 0.603461 0.47131
vn 0.681322 -0.721314 0.124521
vn 0.022162 -0.70196 0.711871
vn 0.030629 -0.996967 0.071543
vn 0.681322 -0.721314 0.124521
vn 0.532885 -0.590253 0.606329
vn 0.022162 -0.70196 0.711871
vn 0.662431 -0.094435 0.743147
vn 0.532885 -0.590253 0.606329
vn 0.681322 -0.721314 0.124521
vn 0.615689 0.224652 0.755287
vn -0.290088 -0.652414 0.700146
vn 0.532885 -0.590253 0.606329
vn -0.643197 0.603461 0.47131
vn -0.290088 -0.652414 0.700146
vn 0.615689 0.224652 0.755287
vn -0.020044 -0.619394 0.784825
vn -0.058259 0.576497 0.815019
vn -0.331135 0.46349 0.821905
vn 0.022737 -0.422529 0.906064
vn -0.058259 0.576497 0.815019
vn -0.020044 -0.619394 0.784825
vn 0.022737 -0.422529 0.906064
vn 0.004956 0.575955 0.817466
vn -0.058259 0.576497 0.815019
vn 0.27834 0.469483 0.837921
vn 0.004956 0.575955 0.817466
vn 0.022737 -0.422529 0.906064
vn 0.27834 0.469483 0.837921
vn -0.03823 0.949867 0.310308
vn 0.004956 0.575955 0.817466
vn -0.060894 0.913728 0.401738
vn -0.03823 0.949867 0.310308
vn 0.01654 0.547852 0.836412
vn 0.956079 -0.226063 0.186572
vn 0.577654 -0.595365 0.558441
vn 0.071492 -0.978781 0.192033
vn 0.886227 0.358303 0.293633
vn 0.577654 -0.595365 0.558441
vn 0.956079 -0.226063 0.186572
vn 0.886227 0.358303 0.293633
vn 0.36221 0.250341 0.897849
vn 0.577654 -0.595365 0.558441
vn 0.00661 0.554641 0.832063
vn 0.36221 0.250341 0.897849
vn 0.443474 0.833775 0.328862
vn 0.00661 0.554641 0.832063
vn 0.065326 -0.660639 0.747856
vn 0.36221 0.250341 0.897849
vn 0.020835 -0.658001 0.752729
vn 0.065326 -0.660639 0.747856
vn 0.00661 0.554641 0.832063
vn 0.020835 -0.658001 0.752729
vn 0.055149 -0.983427 0.172714
vn 0.065326 -0.660639 0.747856
vn -0.797917 -0.485288 0.357525
vn 0.055149 -0.983427 0.172714
vn 0.020835 -0.658001 0.752729
vn -0.907383 0.148155 0.393328
vn -0.331135 0.46349 0.821905
vn -0.075851 0.946822 0.31269
vn -0.536637 -0.582467 0.610534
vn -0.331135 0.46349 0.821905
vn -0.935499 -0.210759 0.283587
vn -0.536637 -0.582467 0.610534
vn -0.020044 -0.619394 0.784825
vn -0.331135 0.46349 0.821905
vn -0.001958 -0.98902 0.14777
vn -0.020044 -0.619394 0.784825
vn -0.536637 -0.582467 0.610534
vn -0.001958 -0.98902 0.14777
vn 0.002705 -0.97967 0.2006
vn -0.020044 -0.619394 0.784825

# Mesh_0131.rip, 78 grouped triangles

usemtl refridgerator
o Mesh_0131.rip
g Mesh_0131.rip

f 3/1/1 2/2/2 1/3/3
f 5/4/4 6/5/5 4/6/6
f 8/7/7 9/8/8 7/9/9
f 10/10/10 9/11/11 8/12/12
f 12/13/13 13/14/14 11/15/15
f 14/16/16 13/17/17 12/18/18
f 16/19/19 17/20/20 15/21/21
f 18/22/22 17/23/23 16/24/24
f 20/25/25 21/26/26 19/27/27
f 22/28/28 21/29/29 20/30/30
f 22/31/31 23/32/32 21/33/33
f 1/34/34 7/35/35 9/36/36
f 24/37/37 7/38/38 1/39/39
f 24/40/40 25/41/41 7/42/42
f 3/43/43 11/44/44 13/45/45
f 1/46/46 11/47/47 3/48/48
f 1/49/49 10/50/50 11/51/51
f 9/52/52 10/53/53 1/54/54
f 26/55/55 8/56/56 7/57/57
f 27/58/58 8/59/59 26/60/60
f 27/61/61 10/62/62 8/63/63
f 28/64/64 10/65/65 27/66/66
f 30/67/67 31/68/68 29/69/69
f 32/70/70 31/71/71 30/72/72
f 32/73/73 2/74/74 31/75/75
f 24/76/76 2/77/77 32/78/78
f 24/79/79 1/80/80 2/81/81
f 6/82/82 34/83/83 33/84/84
f 5/85/85 34/86/86 6/87/87
f 5/88/88 35/89/89 34/90/90
f 36/91/91 35/92/92 5/93/93
f 36/94/94 37/95/95 35/96/96
f 31/97/97 38/98/98 29/99/99
f 2/100/100 38/101/101 31/102/102
f 2/103/103 14/104/104 38/105/105
f 3/106/106 14/107/107 2/108/108
f 3/109/109 13/110/110 14/111/111
f 32/112/112 25/113/113 24/114/114
f 30/115/115 25/116/116 32/117/117
f 30/118/118 19/119/119 25/120/120
f 29/121/121 19/122/122 30/123/123
f 29/124/124 20/125/125 19/126/126
f 38/127/127 20/128/128 29/129/129
f 38/130/130 22/131/131 20/132/132
f 14/133/133 22/134/134 38/135/135
f 14/136/136 23/137/137 22/138/138
f 39/139/139 23/140/140 14/141/141
f 39/142/142 21/143/143 23/144/144
f 40/145/145 21/146/146 39/147/147
f 40/148/148 19/149/149 21/150/150
f 25/151/151 19/152/152 40/153/153
f 41/154/154 18/155/155 16/156/156
f 42/157/157 18/158/158 41/159/159
f 42/160/160 43/161/161 18/162/162
f 15/163/163 43/164/164 42/165/165
f 15/166/166 44/167/167 43/168/168
f 17/169/169 44/170/170 15/171/171
f 17/172/172 43/173/173 44/174/174
f 18/175/175 43/176/176 17/177/177
f 28/178/178 6/179/179 33/180/180
f 27/181/181 6/182/182 28/183/183
f 27/184/184 4/185/185 6/186/186
f 26/187/187 4/188/188 27/189/189
f 26/190/190 5/191/191 4/192/192
f 7/193/193 5/194/194 26/195/195
f 7/196/196 36/197/197 5/198/198
f 25/199/199 36/200/200 7/201/201
f 25/202/202 37/203/203 36/204/204
f 40/205/205 37/206/206 25/207/207
f 40/208/208 35/209/209 37/210/210
f 39/211/211 35/212/212 40/213/213
f 39/214/214 34/215/215 35/216/216
f 14/217/217 34/218/218 39/219/219
f 14/220/220 33/221/221 34/222/222
f 12/223/223 33/224/224 14/225/225
f 12/226/226 28/227/227 33/228/228
f 11/229/229 28/230/230 12/231/231
f 11/232/232 10/233/233 28/234/234
